<svg xmlns="http://www.w3.org/2000/svg" viewBox="0 0 512 512" width="512" height="512">
  <defs>
    <linearGradient id="bgGrad" x1="0%" y1="0%" x2="100%" y2="100%">
      <stop offset="0%" stop-color="#3b82f6"/>
      <stop offset="100%" stop-color="#1d4ed8"/>
    </linearGradient>
    <linearGradient id="capGrad" x1="0%" y1="0%" x2="100%" y2="100%">
      <stop offset="0%" stop-color="#ffffff"/>
      <stop offset="100%" stop-color="#e2e8f0"/>
    </linearGradient>
  </defs>
  <rect width="512" height="512" rx="128" fill="url(#bgGrad)"/>
  <g transform="translate(64, 64) scale(0.75)">
    <!-- Graduation Cap -->
    <polygon points="256,60 480,180 256,300 32,180" fill="url(#capGrad)" filter="drop-shadow(0 8px 16px rgba(0,0,0,0.25))"/>
    <polygon points="120,228 120,360 256,430 392,360 392,228 256,300" fill="#f8fafc" opacity="0.95"/>
    <circle cx="256" cy="180" r="16" fill="#f59e0b"/>
    <!-- Tassel -->
    <path d="M256,180 Q340,240 400,280 L410,340 L390,340 Z" fill="#fbbf24"/>
    <!-- Calendar Grid Icon Accent -->
    <rect x="180" y="320" width="152" height="110" rx="16" fill="#3b82f6" opacity="0.9"/>
    <rect x="200" y="350" width="30" height="24" rx="4" fill="#ffffff"/>
    <rect x="241" y="350" width="30" height="24" rx="4" fill="#ffffff"/>
    <rect x="282" y="350" width="30" height="24" rx="4" fill="#ffffff"/>
    <rect x="200" y="385" width="30" height="24" rx="4" fill="#ffffff"/>
    <rect x="241" y="385" width="30" height="24" rx="4" fill="#ffffff"/>
    <rect x="282" y="385" width="30" height="24" rx="4" fill="#ffffff"/>
  </g>
</svg>
